<svg width="12" height="15" viewBox="0 0 12 15" fill="none" xmlns="http://www.w3.org/2000/svg">
<path fill-rule="evenodd" clip-rule="evenodd" d="M5.04708 2.09867V3.88257L4.914 3.85809C4.09654 3.71533 3.22612 3.77243 2.4847 4.01989C0.84298 4.5692 -0.0776843 6.02542 0.00514799 7.94529C0.0445271 8.80596 0.216983 9.39878 0.58905 9.95761C1.11999 10.7585 1.97955 11.2343 3.23698 11.4329C4.16172 11.5797 6.04243 11.4764 7.31479 11.2072L7.41121 11.1854V0.320207H5.04572V2.10003L5.04708 2.09867ZM4.8787 5.73717L5.04708 5.78068V9.56602L4.80673 9.58778C3.87113 9.67752 3.25463 9.51979 2.86084 9.0847C2.55259 8.7475 2.39507 8.26617 2.39507 7.67471C2.39507 6.6264 2.89343 5.91665 3.77064 5.71541C4.02457 5.65831 4.61934 5.66918 4.8787 5.73717Z" fill="white"/>
<path d="M8.80986 0.318848V2.72276H11.1753L11.1686 1.5276L11.1577 0.336523L9.98581 0.325645L8.80986 0.318848Z" fill="white"/>
<path d="M8.80986 6.67806C8.80986 10.7435 8.75961 11.2751 8.31829 12.1358C8.04263 12.6742 7.53342 13.1229 6.77027 13.5064C6.57609 13.6029 6.51634 13.6464 6.55572 13.6682C6.58424 13.6858 7.0758 13.9197 7.64477 14.1889L8.68357 14.6811L8.90219 14.5696C10.2927 13.849 10.9228 12.8401 11.1034 11.0318C11.1278 10.7952 11.1536 9.31312 11.1645 7.28992L11.1862 3.94511H8.80986V6.67806Z" fill="white"/>
</svg>
