<svg width="11" height="15" viewBox="0 0 11 15" fill="none" xmlns="http://www.w3.org/2000/svg">
<path d="M10.1862 11.798L5.62372 14.3759C5.31122 14.5414 4.99872 14.5414 4.68622 14.3759L0.186218 11.798L8.34247 3.42794L8.56122 3.36429C8.74872 3.36429 8.85497 3.44703 8.87372 3.61889L10.1862 11.798ZM3.52997 3.55524L0.686218 8.36088L1.87372 0.754603C1.89247 0.582746 1.99872 0.5 2.18622 0.5C2.31122 0.5 2.39247 0.538191 2.43622 0.659127L3.77997 3.17333L3.52997 3.55524ZM6.34247 4.35724L0.373718 10.4614L4.90497 2.6323C4.96747 2.505 5.06122 2.44772 5.18622 2.44772C5.31122 2.44772 5.39247 2.505 5.43622 2.6323L6.34247 4.35724Z" fill="white"/>
</svg>
