<svg width="12" height="15" viewBox="0 0 12 15" fill="none" xmlns="http://www.w3.org/2000/svg">
<path d="M6 0.5C5.82 0.5 5.63333 0.548276 5.48 0.637931L0.52 3.60345C0.2 3.79655 0 4.15517 0 4.54138V10.4586C0 10.8448 0.2 11.2034 0.52 11.3966L1.82 12.169C2.45333 12.4862 2.66667 12.4931 2.96 12.4931C3.89333 12.4931 4.43333 11.9069 4.43333 10.8862V5.04483C4.43333 4.96207 4.36667 4.8931 4.28667 4.8931H3.66667C3.58 4.8931 3.51333 4.96207 3.51333 5.04483V10.8862C3.51333 11.3414 3.06 11.7897 2.33333 11.4103L0.966667 10.6034C0.92 10.569 0.893333 10.5138 0.893333 10.4586V4.54138C0.893333 4.47931 0.92 4.42414 0.966667 4.39655L5.92667 1.43793C5.96667 1.41034 6.03333 1.41034 6.07333 1.43793L11.0333 4.39655C11.08 4.42414 11.1067 4.47931 11.1067 4.54138V10.4586C11.1067 10.5138 11.08 10.569 11.0333 10.6034L6.07333 13.5621C6.03333 13.5897 5.96667 13.5897 5.92 13.5621L4.66667 12.7759C4.61333 12.7552 4.56 12.7483 4.52667 12.769C4.17333 12.9759 4.10667 13.0172 3.78 13.1207C3.7 13.1483 3.57333 13.1966 3.82667 13.3414L5.48 14.3552C5.64 14.4517 5.81333 14.5 6 14.5C6.18667 14.5 6.36 14.4517 6.52 14.3552L11.48 11.3966C11.8 11.2034 12 10.8448 12 10.4586V4.54138C12 4.15517 11.8 3.79655 11.48 3.60345L6.52 0.637931C6.36667 0.548276 6.18667 0.5 6 0.5ZM7.33333 4.74138C5.92 4.74138 5.07333 5.35517 5.07333 6.38966C5.07333 7.5 5.91333 7.82414 7.27333 7.96207C8.89333 8.12759 9.02 8.37586 9.02 8.7069C9.02 9.27931 8.57333 9.52069 7.53333 9.52069C6.21333 9.52069 5.93333 9.18276 5.83333 8.5069C5.82 8.43793 5.76 8.38276 5.68667 8.38276H5.04667C4.96667 8.38276 4.90667 8.44483 4.90667 8.53448C4.90667 9.38966 5.36 10.4241 7.53333 10.4241C9.1 10.4241 10 9.78276 10 8.66552C10 7.55517 9.28 7.26552 7.75333 7.05172C6.21333 6.84483 6.06 6.73448 6.06 6.36207C6.06 6.05172 6.19333 5.63793 7.33333 5.63793C8.33333 5.63793 8.72667 5.86552 8.88 6.57586C8.89333 6.64483 8.95333 6.6931 9.02 6.6931H9.66667C9.7 6.6931 9.74 6.67931 9.76667 6.64483C9.79333 6.61724 9.81333 6.57586 9.8 6.53448C9.70667 5.3069 8.92 4.74138 7.33333 4.74138Z" fill="#F8F9FA"/>
</svg>
