<svg width="14" height="15" viewBox="0 0 14 15" fill="none" xmlns="http://www.w3.org/2000/svg">
<path d="M13.7433 5.76549C13.5027 4.79989 13.0465 4.07179 12.0746 4.07179H10.8216V5.55299C10.8216 6.70295 9.84658 7.67167 8.73412 7.67167H5.39673C4.48425 7.67167 3.72803 8.45289 3.72803 9.36849V12.5496C3.72803 13.4558 4.5155 13.9871 5.39673 14.2464C6.45294 14.5558 7.46854 14.6121 8.73412 14.2464C9.57472 14.0027 10.4028 13.5121 10.4028 12.5496V11.2778H7.06855V10.8528H12.0746C13.0465 10.8528 13.4058 10.1747 13.7433 9.15912C14.0933 8.11228 14.0777 7.10606 13.7433 5.76549ZM8.94349 12.1246C9.29035 12.1246 9.57159 12.409 9.57159 12.759C9.57159 13.1121 9.29035 13.3965 8.94349 13.3965C8.59975 13.3965 8.31538 13.109 8.31538 12.759C8.31851 12.4059 8.59975 12.1246 8.94349 12.1246ZM5.24361 7.25293H8.581C9.5091 7.25293 10.2497 6.48734 10.2497 5.55612V2.37185C10.2497 1.46563 9.48722 0.787531 8.581 0.634411C7.46229 0.450042 6.2467 0.459417 5.24361 0.637536C3.83115 0.887527 3.57491 1.40938 3.57491 2.37498V3.64681H6.91543V4.07179H2.32182C1.34998 4.07179 0.500007 4.65615 0.234391 5.76549C-0.0718493 7.03732 -0.0843489 7.83104 0.234391 9.15912C0.471883 10.1466 1.03749 10.8528 2.00933 10.8528H3.15617V9.32786C3.15617 8.22478 4.10927 7.25293 5.24361 7.25293ZM5.03424 2.79684C4.68737 2.79684 4.40613 2.51247 4.40613 2.16248C4.40926 1.80937 4.68737 1.52501 5.03424 1.52501C5.37798 1.52501 5.66234 1.8125 5.66234 2.16248C5.66234 2.51247 5.3811 2.79684 5.03424 2.79684Z" fill="#F8F9FA"/>
</svg>
