<svg width="16" height="15" viewBox="0 0 16 15" fill="none" xmlns="http://www.w3.org/2000/svg">
<path d="M13.0688 5.03687C12.9 4.98062 12.7312 4.9275 12.5625 4.8775C12.5906 4.76188 12.6156 4.64626 12.6406 4.53064C13.025 2.66824 12.7719 1.17145 11.9187 0.677725C11.0969 0.205875 9.75625 0.696474 8.4 1.87766C8.26562 1.99328 8.13437 2.11515 8.00937 2.23702C7.925 2.15577 7.8375 2.07453 7.75 1.9964C6.32812 0.733972 4.90313 0.20275 4.05 0.699599C3.23125 1.17457 2.9875 2.58387 3.33125 4.34628C3.36562 4.52127 3.40313 4.69314 3.44688 4.86813C3.24688 4.92437 3.05 4.98687 2.86562 5.05249C1.19687 5.63058 0 6.54304 0 7.48674C0 8.46168 1.275 9.43976 3.00938 10.0335C3.15 10.0803 3.29063 10.1272 3.43438 10.1678C3.3875 10.3553 3.34687 10.5397 3.30938 10.7303C2.98125 12.4646 3.2375 13.8395 4.05625 14.3114C4.9 14.7988 6.31875 14.2989 7.7 13.0896C7.80937 12.9927 7.91875 12.8927 8.02812 12.7865C8.16562 12.9208 8.30937 13.0489 8.45312 13.1739C9.79062 14.3239 11.1125 14.7895 11.9281 14.3176C12.7719 13.8301 13.0469 12.3521 12.6906 10.5522C12.6625 10.4147 12.6313 10.2741 12.5969 10.1303C12.6969 10.1022 12.7937 10.071 12.8906 10.0397C14.6938 9.44288 16 8.47731 16 7.48674C16 6.53991 14.7688 5.62121 13.0688 5.03687ZM8.84062 2.38388C10.0031 1.37144 11.0875 0.974584 11.5813 1.25894C12.1094 1.56205 12.3125 2.78699 11.9812 4.39628C11.9594 4.50252 11.9375 4.60564 11.9094 4.70876C11.2156 4.55252 10.5125 4.44002 9.80625 4.37753C9.4 3.79631 8.95625 3.24009 8.475 2.71824C8.59688 2.60262 8.71562 2.49325 8.84062 2.38388ZM5.225 9.10852C5.38438 9.38038 5.54688 9.65224 5.71875 9.91786C5.23125 9.86473 4.74688 9.78661 4.26875 9.68349C4.40625 9.23352 4.57812 8.76792 4.77812 8.29294C4.92188 8.56793 5.06875 8.83979 5.225 9.10852ZM4.27812 5.34935C4.72812 5.24936 5.20625 5.16811 5.70312 5.10561C5.5375 5.36497 5.375 5.63059 5.22188 5.89932C5.06875 6.16493 4.91875 6.43679 4.77812 6.71178C4.58125 6.24618 4.41562 5.78995 4.27812 5.34935ZM5.13438 7.50236C5.34063 7.07113 5.56562 6.64928 5.80312 6.23368C6.04063 5.81808 6.29688 5.41497 6.56563 5.01812C7.03438 4.98374 7.5125 4.965 8 4.965C8.4875 4.965 8.96875 4.98374 9.43437 5.01812C9.7 5.41185 9.95312 5.81495 10.1938 6.22743C10.4344 6.63991 10.6594 7.06176 10.8719 7.48986C10.6625 7.92109 10.4375 8.34607 10.1969 8.76479C9.95937 9.1804 9.70625 9.5835 9.44063 9.98348C8.975 10.0179 8.49063 10.0335 8 10.0335C7.50938 10.0335 7.03437 10.0179 6.575 9.98973C6.30312 9.59287 6.04688 9.18665 5.80625 8.77104C5.56563 8.35544 5.34375 7.93359 5.13438 7.50236ZM10.7781 9.10227C10.9375 8.82729 11.0875 8.54918 11.2344 8.26794C11.4344 8.72105 11.6094 9.1804 11.7625 9.65224C11.2781 9.76161 10.7875 9.84598 10.2937 9.90223C10.4625 9.63975 10.6219 9.37101 10.7781 9.10227ZM11.2281 6.71178C11.0812 6.43679 10.9312 6.16181 10.775 5.89307C10.6219 5.62746 10.4625 5.36497 10.2969 5.10561C10.8 5.16811 11.2812 5.25248 11.7312 5.3556C11.5875 5.81807 11.4187 6.26805 11.2281 6.71178ZM8.00625 3.19634C8.33438 3.55257 8.64375 3.92755 8.93125 4.31503C8.3125 4.28691 7.69063 4.28691 7.07188 4.31503C7.37813 3.91193 7.69375 3.53695 8.00625 3.19634ZM4.38125 1.28082C4.90625 0.974584 6.07188 1.41206 7.3 2.4995C7.37813 2.56825 7.45625 2.64324 7.5375 2.71824C7.05312 3.24009 6.60625 3.79631 6.19688 4.37753C5.49062 4.44002 4.79063 4.54939 4.09688 4.70251C4.05625 4.54314 4.02187 4.38065 3.9875 4.21816C3.69375 2.70574 3.8875 1.56518 4.38125 1.28082ZM3.61562 9.51788C3.48438 9.48038 3.35625 9.43976 3.22813 9.39601C2.5625 9.18665 1.80625 8.85541 1.25937 8.42106C0.94375 8.20232 0.73125 7.86484 0.671875 7.48674C0.671875 6.91489 1.65937 6.18368 3.08437 5.68683C3.2625 5.62434 3.44375 5.56809 3.625 5.51497C3.8375 6.19306 4.09375 6.85864 4.39062 7.50236C4.09062 8.15545 3.83125 8.83041 3.61562 9.51788ZM7.25938 12.5802C6.74375 13.0521 6.14687 13.427 5.49687 13.6833C5.15 13.8489 4.75 13.8645 4.39375 13.7239C3.89688 13.4364 3.69062 12.3334 3.97187 10.8491C4.00625 10.6741 4.04375 10.4991 4.0875 10.3272C4.7875 10.4772 5.49375 10.5803 6.20937 10.6334C6.62187 11.2178 7.075 11.7771 7.55937 12.3021C7.45937 12.399 7.35938 12.4927 7.25938 12.5802ZM8.025 11.8209C7.70625 11.4771 7.3875 11.0959 7.07812 10.6866C7.37813 10.6991 7.6875 10.7053 8 10.7053C8.32187 10.7053 8.6375 10.6991 8.95 10.6834C8.6625 11.0803 8.35312 11.4584 8.025 11.8209ZM12.1094 12.7583C12.0813 13.1396 11.8938 13.4958 11.5938 13.7364C11.0969 14.0239 10.0375 13.6489 8.89375 12.6677C8.7625 12.5552 8.63125 12.4333 8.49687 12.3084C8.975 11.7803 9.41563 11.2209 9.81563 10.6334C10.5312 10.5741 11.2437 10.4647 11.9469 10.3053C11.9781 10.4335 12.0063 10.5616 12.0312 10.6866C12.1844 11.3615 12.2094 12.0646 12.1094 12.7583ZM12.6781 9.39913C12.5906 9.42726 12.5031 9.45538 12.4125 9.48038C12.1938 8.79917 11.925 8.13358 11.6156 7.48674C11.9156 6.84927 12.1688 6.19305 12.3813 5.52122C12.5438 5.56809 12.7 5.61809 12.85 5.66808C14.3063 6.16806 15.3281 6.91177 15.3281 7.48049C15.3281 8.09295 14.2375 8.88354 12.6781 9.39913ZM8 8.93041C8.79062 8.93041 9.43125 8.28982 9.43125 7.49924C9.43125 6.70865 8.79062 6.06806 8 6.06806C7.20937 6.06806 6.56875 6.70865 6.56875 7.49924C6.56875 8.28982 7.20937 8.93041 8 8.93041Z" fill="#F8F9FA"/>
</svg>
