<svg width="23" height="15" viewBox="0 0 23 15" fill="none" xmlns="http://www.w3.org/2000/svg">
<path d="M11.5 0.5C8.4295 0.5 6.5205 2.05167 5.75 5.16667C6.9 3.615 8.2455 3.03167 9.775 3.41667C10.649 3.63833 11.2815 4.28 11.9715 4.99167C13.0985 6.15833 14.375 7.5 17.25 7.5C20.3205 7.5 22.2295 5.94833 23 2.83333C21.85 4.385 20.5045 4.96833 18.975 4.58333C18.101 4.36167 17.48 3.72 16.7785 3.00833C15.6515 1.84167 14.375 0.5 11.5 0.5ZM5.75 7.5C2.6795 7.5 0.7705 9.05167 0 12.1667C1.15 10.615 2.4955 10.0317 4.025 10.4167C4.899 10.6383 5.52 11.28 6.2215 11.9917C7.3485 13.1583 8.625 14.5 11.5 14.5C14.5705 14.5 16.4795 12.9483 17.25 9.83333C16.1 11.385 14.7545 11.9683 13.225 11.5833C12.351 11.3617 11.73 10.72 11.0285 10.0083C9.9015 8.84167 8.625 7.5 5.75 7.5Z" fill="#F8F9FA"/>
</svg>
